<svg xmlns="http://www.w3.org/2000/svg" viewBox="0 0 124.15 124.27"><defs><style>.cls-1{fill:#ffed00;}.cls-2{fill:#009fe3;}.cls-3,.cls-5{fill:#1d1d1b;}.cls-4{fill:#e6007e;}.cls-5{stroke:#1d1d1b;stroke-miterlimit:10;stroke-width:0.79px;}</style></defs><title>Icono_Ploteosnort</title><g id="Capa_2" data-name="Capa 2"><g id="Capa_1-2" data-name="Capa 1"><path class="cls-1" d="M71.4,5.29,72.24,0,64.07,10.6A51.7,51.7,0,0,0,12.71,47.43l14.5-5.14A40.4,40.4,0,0,1,68.68,22.37Z"/><path class="cls-2" d="M5.29,53.38,0,52.53l10.6,8.18a51.71,51.71,0,0,0,36.83,51.36c-1.91-5.41-4-11.37-5.14-14.5A40.41,40.41,0,0,1,22.37,56.09Z"/><path class="cls-3" d="M53.3,119l-.84,5.29,8.18-10.6A51.7,51.7,0,0,0,112,76.84c-5.4,1.92-11.37,4-14.49,5.15A40.41,40.41,0,0,1,56,101.9Z"/><path class="cls-4" d="M118.86,71.2l5.29.84-10.6-8.18A51.7,51.7,0,0,0,76.72,12.51c1.92,5.4,4,11.37,5.15,14.5a40.41,40.41,0,0,1,19.91,41.47Z"/><path class="cls-5" d="M75.81,83.93l-8.66-1.38L55.24,56.09a33.26,33.26,0,0,1-1.41-3.47h-.1C53.65,54,53.4,56,53,58.81l-3.34,21-8.11-1.29,6.07-38.13,9.25,1.47L68.27,67.44c.52,1.15,1,2.29,1.42,3.41l.11,0a38.49,38.49,0,0,1,.62-5.27l3.35-21.09,8.11,1.29Z"/></g></g></svg>