<svg xmlns="http://www.w3.org/2000/svg" viewBox="0 0 104.12 105.71"><defs><style>.cls-1{fill:#f8f9f8;}.cls-2{fill:#219e39;}</style></defs><title>Logo_wsp</title><g id="Capa_2" data-name="Capa 2"><g id="Capa_1-2" data-name="Capa 1"><path class="cls-1" d="M104.12,52A49.9,49.9,0,0,1,91.23,85,50.87,50.87,0,0,1,54,102.16,50.86,50.86,0,0,1,29.5,96.51a1.65,1.65,0,0,0-1.39-.12Q18.06,99.7,8,103q-3.41,1.13-6.79,2.28a3.76,3.76,0,0,0-.74.32c-.12.06-.22.18-.35.08s-.08-.29,0-.44c2.08-5.59,3.86-11.29,5.84-16.91,1.16-3.28,2.25-6.57,3.4-9.84a.82.82,0,0,0-.11-.82A49.91,49.91,0,0,1,2.41,59.3a51.53,51.53,0,0,1,.27-18A50.74,50.74,0,0,1,21.07,11.13,51.08,51.08,0,0,1,33.45,3.86,49.85,49.85,0,0,1,46.33.48a47,47,0,0,1,8-.45A53.28,53.28,0,0,1,69,2.65a51.17,51.17,0,0,1,34.1,38.53A56,56,0,0,1,104.12,52ZM13.81,92l.61-.17c5-1.6,10-3.19,14.93-4.82a1.47,1.47,0,0,1,1.43.21,33.44,33.44,0,0,0,6.34,3.36c13.33,5.24,26.13,4.1,38.05-3.79,10.09-6.68,16-16.29,18.13-28.19A41.55,41.55,0,0,0,90,33.1C84.14,20.65,74.57,12.56,61.06,9.58a39,39,0,0,0-30.57,5.74,40.81,40.81,0,0,0-13.79,15,42.93,42.93,0,0,0-5,25.57,42.23,42.23,0,0,0,7.17,19.59A1.07,1.07,0,0,1,19,76.54c-.86,2.53-1.69,5.07-2.54,7.6S14.72,89.24,13.81,92Z"/><path class="cls-2" d="M13.81,92c.91-2.71,1.76-5.26,2.62-7.81s1.68-5.07,2.54-7.6a1.07,1.07,0,0,0-.14-1.06,42.23,42.23,0,0,1-7.17-19.59,42.93,42.93,0,0,1,5-25.57,40.81,40.81,0,0,1,13.79-15A39,39,0,0,1,61.06,9.58c13.51,3,23.08,11.07,29,23.52A41.55,41.55,0,0,1,93.3,58.55c-2.09,11.9-8,21.51-18.13,28.19-11.92,7.89-24.72,9-38.05,3.79a33.44,33.44,0,0,1-6.34-3.36A1.47,1.47,0,0,0,29.35,87c-5,1.63-10,3.22-14.93,4.82ZM40,26.06c-1,0-1.7,0-2.38,0a1.64,1.64,0,0,0-1.06.36c-6.09,4.36-6.12,12.28-4.08,16.85a54.17,54.17,0,0,0,5.35,9.24A51.39,51.39,0,0,0,61.28,71.25a15.52,15.52,0,0,0,5.25,1.42,19.18,19.18,0,0,0,6.75-1.08,9.65,9.65,0,0,0,6.57-10.24,1,1,0,0,0-.59-.88C77,59.27,74.77,58,72.5,56.83a17.47,17.47,0,0,0-3.58-1.75,1.62,1.62,0,0,0-1.87.43c-1.44,1.89-3.15,3.54-4.66,5.36a.74.74,0,0,1-1,.29,31.19,31.19,0,0,1-10.24-5.67,23.24,23.24,0,0,1-7.11-10.1,1.57,1.57,0,0,1,.45-2,8.32,8.32,0,0,0,2.94-4.14,2.84,2.84,0,0,0,.11-2.14c-1.4-2.89-2.93-5.73-4.17-8.69C42.64,26.55,41.74,25.45,40,26.06Z"/><path class="cls-1" d="M40,26.06c1.77-.61,2.67.49,3.44,2.31,1.24,3,2.77,5.8,4.17,8.69a2.84,2.84,0,0,1-.11,2.14,8.32,8.32,0,0,1-2.94,4.14,1.57,1.57,0,0,0-.45,2,23.24,23.24,0,0,0,7.11,10.1,31.19,31.19,0,0,0,10.24,5.67.74.74,0,0,0,1-.29c1.51-1.82,3.22-3.47,4.66-5.36a1.62,1.62,0,0,1,1.87-.43,17.47,17.47,0,0,1,3.58,1.75c2.27,1.19,4.5,2.44,6.76,3.64a1,1,0,0,1,.59.88,9.65,9.65,0,0,1-6.57,10.24,19.18,19.18,0,0,1-6.75,1.08,15.52,15.52,0,0,1-5.25-1.42A51.39,51.39,0,0,1,37.8,52.51a54.17,54.17,0,0,1-5.35-9.24c-2-4.57-2-12.49,4.08-16.85a1.64,1.64,0,0,1,1.06-.36C38.27,26.07,39,26.06,40,26.06Z"/></g></g></svg>