<svg xmlns="http://www.w3.org/2000/svg" viewBox="0 0 368.02 172.47"><defs><style>.cls-1,.cls-5{fill:#1d1d1b;}.cls-2{fill:#ffed00;}.cls-3{fill:#009fe3;}.cls-4{fill:#e6007e;}.cls-5{stroke:#1d1d1b;stroke-miterlimit:10;stroke-width:0.79px;}</style></defs><title>Recurso 1</title><g id="Capa_2" data-name="Capa 2"><g id="Capa_1-2" data-name="Capa 1"><path class="cls-1" d="M17.27,132.33a12.71,12.71,0,0,0-8.17,3.38H8.87L8.17,133H0v39.44H10v-8.05L9.57,160H9.8a9.18,9.18,0,0,0,6.6,2.92c6.36,0,12.42-5.72,12.42-15.75C28.82,138.16,24.33,132.33,17.27,132.33ZM14,154.73a5.89,5.89,0,0,1-4-1.4V142.59a5.37,5.37,0,0,1,4.2-2.1c2.86,0,4.31,2,4.31,6.77C18.55,152.86,16.45,154.73,14,154.73Z"/><path class="cls-1" d="M54.32,154.85c-2,0-4.37-.94-4.37-4.32V121.59H31.16v7.82h8.75v20.77c0,7.58,4,12.72,11.73,12.72a27.27,27.27,0,0,0,9-1.52L58.52,154A12.66,12.66,0,0,1,54.32,154.85Z"/><path class="cls-1" d="M78.89,132.33a15.29,15.29,0,1,0,15,15.28A14.77,14.77,0,0,0,78.89,132.33Zm0,22.52c-3.39,0-4.79-2.8-4.79-7.24s1.4-7.23,4.79-7.23,4.78,2.8,4.78,7.23S82.27,154.85,78.89,154.85Z"/><path class="cls-1" d="M119.09,155.08c-3.73,0-5.66-1.28-5.66-5.43v-8.81H125V133H113.43v-8.76h-8.28L103.86,133l-7.47.35v7.46h7v9c0,7.82,3.51,13.07,13.08,13.07a35.12,35.12,0,0,0,9.68-1.52l-1.75-7.23A16.7,16.7,0,0,1,119.09,155.08Z"/><path class="cls-1" d="M144.71,132.33c-7.82,0-15.29,5.71-15.29,15.28s7.12,15.29,16.34,15.29a23.23,23.23,0,0,0,11.67-3.38l-3.27-6a16.27,16.27,0,0,1-7,1.75c-4.24,0-6.8-1.39-7.69-4.66h18.72a27.46,27.46,0,0,0,.4-4.2C158.59,138.63,153.93,132.33,144.71,132.33Zm.35,7.58c2.72,0,4.21,1.48,4.64,4.2H139.52A5.24,5.24,0,0,1,145.06,139.91Z"/><path class="cls-1" d="M176.56,132.33a15.29,15.29,0,1,0,15.06,15.28A14.77,14.77,0,0,0,176.56,132.33Zm0,22.52c-3.38,0-4.78-2.8-4.78-7.24s1.4-7.23,4.78-7.23,4.79,2.8,4.79,7.23S180,154.85,176.56,154.85Z"/><path class="cls-1" d="M212.16,143.76c-4.55-1-6.07-1.17-6.07-2.45,0-1.05,1.17-1.63,3-1.63a19.43,19.43,0,0,1,9.46,2.68l4.43-6a24.29,24.29,0,0,0-12.95-4.08c-8.46,0-13.89,3.73-13.89,9.45,0,4.55,2.92,7.58,11,9.33,4.9,1,6.42,1.29,6.42,2.69,0,1-1.05,1.75-3.62,1.75a22.94,22.94,0,0,1-11.44-3.27l-4.2,6.18a27.67,27.67,0,0,0,14.24,4.44c9.74,0,14.94-4.2,14.94-9.69C223.48,148.37,220.91,145.74,212.16,143.76Z"/><path class="cls-1" d="M260.72,132.33a13.9,13.9,0,0,0-9.75,4.2h-.23L250,133h-8.17V162.2h10V143.06c1.51-1.4,2.8-2.22,4.66-2.22,2.57,0,3.39,1.4,3.39,4.67V162.2h10v-18C270,137,267.19,132.33,260.72,132.33Z"/><path class="cls-1" d="M288.2,132.33a15.29,15.29,0,1,0,15.05,15.28A14.77,14.77,0,0,0,288.2,132.33Zm0,22.52c-3.39,0-4.79-2.8-4.79-7.24s1.4-7.23,4.79-7.23,4.78,2.8,4.78,7.23S291.58,154.85,288.2,154.85Z"/><path class="cls-1" d="M318.54,139.21h-.23l-.76-6.18h-8.23V162.2h10V147.73c2.16-4.9,5.72-6.65,9-6.65a15.6,15.6,0,0,1,5.08.81l2-8.4a11.87,11.87,0,0,0-5.54-1.16C325.54,132.33,321.34,134.43,318.54,139.21Z"/><path class="cls-1" d="M366.27,154.15a16.7,16.7,0,0,1-5.31.93c-3.73,0-5.66-1.28-5.66-5.43v-8.81h11.55V133H355.3v-8.76H347L345.73,133l-7.47.35v7.46h7v9c0,7.82,3.51,13.07,13.07,13.07a35.14,35.14,0,0,0,9.69-1.52Z"/><path class="cls-2" d="M193.73,5.29,194.57,0,186.4,10.6A51.7,51.7,0,0,0,135,47.43l14.5-5.14A40.4,40.4,0,0,1,191,22.37Z"/><path class="cls-3" d="M127.62,53.38l-5.29-.85,10.6,8.18a51.71,51.71,0,0,0,36.83,51.36l-5.14-14.5A40.41,40.41,0,0,1,144.7,56.09Z"/><path class="cls-1" d="M175.63,119l-.84,5.29,8.18-10.6a51.7,51.7,0,0,0,51.35-36.83L219.82,82a40.39,40.39,0,0,1-41.47,19.91Z"/><path class="cls-4" d="M241.19,71.2l5.29.84-10.6-8.18a51.7,51.7,0,0,0-36.83-51.35c1.92,5.4,4,11.37,5.14,14.5a40.4,40.4,0,0,1,19.92,41.47Z"/><path class="cls-5" d="M198.14,83.93l-8.67-1.38-11.9-26.46a33.26,33.26,0,0,1-1.41-3.47h-.11c-.07,1.37-.33,3.43-.77,6.2l-3.33,21-8.11-1.29,6.07-38.13,9.25,1.47L190.6,67.44c.52,1.15,1,2.29,1.42,3.41l.1,0a42.13,42.13,0,0,1,.62-5.27l3.36-21.09,8.11,1.29Z"/></g></g></svg>