<svg id="Capa_1" data-name="Capa 1" xmlns="http://www.w3.org/2000/svg" viewBox="0 0 283.46 283.46"><defs><style>.cls-1,.cls-3{fill:#fff;}.cls-10,.cls-2{fill:none;}.cls-10,.cls-2,.cls-3,.cls-4{stroke:#000;}.cls-10,.cls-2,.cls-3,.cls-4,.cls-9{stroke-miterlimit:10;}.cls-4{stroke-width:0.25px;}.cls-5{fill:#ffec00;}.cls-6{fill:#009ee2;}.cls-7,.cls-9{fill:#1d1d1b;}.cls-8{fill:#e5007e;}.cls-9{stroke:#1d1d1b;stroke-width:0.79px;}.cls-10{stroke-width:0.75px;}</style></defs><title>stickers_ft1</title><rect class="cls-1" width="283.46" height="283.46"/><path d="M33.25,80.05h.52v3.7h4.58v-3.7h.52v8.4h-.52V84.2H33.77v4.25h-.52Z"/><path d="M40.79,85.41c0-2,1.27-3.22,2.73-3.22s2.73,1.17,2.73,3.22S45,88.6,43.52,88.6,40.79,87.42,40.79,85.41Zm4.94,0c0-1.64-.95-2.78-2.21-2.78s-2.21,1.14-2.21,2.78.95,2.75,2.21,2.75S45.73,87,45.73,85.41Z"/><path d="M48.11,87.68V79.27h.49v8.49c0,.27.11.4.26.4a.79.79,0,0,0,.23,0l.09.41a1.21,1.21,0,0,1-.38.06C48.35,88.6,48.11,88.32,48.11,87.68Z"/><path d="M50.64,86.94c0-1.36,1.24-2,4-2.31,0-1-.24-2-1.47-2a3.33,3.33,0,0,0-2,.73L50.94,83a4,4,0,0,1,2.25-.79c1.45,0,1.91,1.06,1.91,2.33v3.93h-.42l-.06-.81h0a3.63,3.63,0,0,1-2.19,1A1.59,1.59,0,0,1,50.64,86.94Zm4,.21V85c-2.57.3-3.46.89-3.46,1.89a1.18,1.18,0,0,0,1.33,1.25A3.32,3.32,0,0,0,54.61,87.15Z"/><path d="M56.74,90a1.73,1.73,0,0,0,.95-1.58l-.16-.73.44.58a.46.46,0,0,1-.43.2A.47.47,0,0,1,57,88a.5.5,0,0,1,.52-.51c.37,0,.61.33.61.87a2.34,2.34,0,0,1-1.25,2Z"/><path d="M62.16,86.94c0-1.36,1.24-2,4-2.31,0-1-.24-2-1.47-2a3.33,3.33,0,0,0-2,.73L62.46,83a4,4,0,0,1,2.25-.79c1.45,0,1.91,1.06,1.91,2.33v3.93H66.2l-.06-.81h0a3.63,3.63,0,0,1-2.19,1A1.59,1.59,0,0,1,62.16,86.94Zm4,.21V85c-2.57.3-3.45.89-3.45,1.89A1.17,1.17,0,0,0,64,88.16,3.32,3.32,0,0,0,66.13,87.15Z"/><path d="M68.32,85.41c0-2,1.29-3.22,2.77-3.22a2.54,2.54,0,0,1,1.79.75l-.31.36a2.09,2.09,0,0,0-1.48-.67c-1.26,0-2.25,1.14-2.25,2.78s.89,2.75,2.25,2.75a2.47,2.47,0,0,0,1.66-.72l.27.35a2.91,2.91,0,0,1-2,.81C69.5,88.6,68.32,87.42,68.32,85.41Z"/><path d="M74,86.94c0-1.36,1.24-2,4-2.31,0-1-.23-2-1.46-2a3.36,3.36,0,0,0-2,.73L74.27,83a4,4,0,0,1,2.26-.79c1.44,0,1.91,1.06,1.91,2.33v3.93H78L78,87.64h0a3.63,3.63,0,0,1-2.19,1A1.59,1.59,0,0,1,74,86.94Zm4,.21V85c-2.57.3-3.45.89-3.45,1.89a1.17,1.17,0,0,0,1.32,1.25A3.32,3.32,0,0,0,77.94,87.15Z"/><path d="M82.16,82.34h.54l1.41,3.88c.2.58.42,1.2.63,1.74h.05c.2-.54.42-1.16.62-1.74l1.41-3.88h.51l-2.28,6.11h-.58Z"/><path d="M88,86.94c0-1.36,1.23-2,4-2.31,0-1-.24-2-1.47-2a3.33,3.33,0,0,0-2,.73L88.28,83a4,4,0,0,1,2.25-.79c1.44,0,1.91,1.06,1.91,2.33v3.93H92L92,87.64h0a3.66,3.66,0,0,1-2.19,1A1.59,1.59,0,0,1,88,86.94Zm4,.21V85c-2.58.3-3.46.89-3.46,1.89a1.18,1.18,0,0,0,1.33,1.25A3.34,3.34,0,0,0,92,87.15Z"/><path d="M97.21,82.34h.42l.06,1h0a2.85,2.85,0,0,1,1.94-1.11,1.57,1.57,0,0,1,1.68,1.25,3.09,3.09,0,0,1,2.09-1.25c1.21,0,1.82.75,1.82,2.33v3.93h-.5V84.59c0-1.32-.44-2-1.4-2a2.71,2.71,0,0,0-1.87,1.17v4.64H101V84.59c0-1.32-.44-2-1.4-2a2.77,2.77,0,0,0-1.87,1.17v4.64h-.49Z"/><path d="M107.3,80.36a.47.47,0,0,1,.49-.48.48.48,0,1,1,0,1A.47.47,0,0,1,107.3,80.36Zm.23,2H108v6.11h-.49Z"/><path d="M112.44,85.41c0-2,1.25-3.22,2.72-3.22a2.9,2.9,0,0,1,1.86.75l0-1.13V79.27h.49v9.18h-.42l-.06-.8h0a2.93,2.93,0,0,1-2,.95C113.43,88.6,112.44,87.47,112.44,85.41ZM117,87.12V83.44a2.62,2.62,0,0,0-1.82-.81c-1.25,0-2.21,1.22-2.21,2.77s.74,2.75,2.07,2.75A2.78,2.78,0,0,0,117,87.12Z"/><path d="M119.65,80.36a.47.47,0,0,1,.49-.48.48.48,0,1,1,0,1A.47.47,0,0,1,119.65,80.36Zm.23,2h.49v6.11h-.49Z"/><path d="M122,87.76l.3-.38a2.83,2.83,0,0,0,2,.78c1,0,1.5-.58,1.5-1.24s-.8-1.13-1.51-1.38c-.93-.33-2-.7-2-1.74,0-.87.68-1.61,2-1.61a2.82,2.82,0,0,1,1.72.62l-.28.37a2.3,2.3,0,0,0-1.46-.56c-1,0-1.42.57-1.42,1.15s.73,1,1.46,1.26c1,.36,2,.67,2,1.86a1.81,1.81,0,0,1-2,1.71A3.52,3.52,0,0,1,122,87.76Z"/><path d="M127.37,85.41c0-2,1.29-3.22,2.65-3.22s2.32,1,2.32,2.82a3.39,3.39,0,0,1,0,.44h-4.44a2.45,2.45,0,0,0,2.34,2.71,2.75,2.75,0,0,0,1.66-.55l.21.39a3.25,3.25,0,0,1-1.91.6A2.88,2.88,0,0,1,127.37,85.41Zm4.5-.39c0-1.6-.73-2.4-1.85-2.4a2.35,2.35,0,0,0-2.14,2.4Z"/><path d="M134,82.34h.42l.06,1h0a3,3,0,0,1,2.11-1.1c1.26,0,1.84.75,1.84,2.33v3.93H138V84.59c0-1.32-.42-2-1.43-2-.74,0-1.28.39-2,1.17v4.64H134Zm1.41-2.51c-.46,0-.66.53-.69,1.2l-.4,0c0-.77.28-1.58,1.11-1.58s1.23,1.24,2,1.24c.46,0,.66-.56.68-1.21l.4,0c0,.76-.28,1.58-1.1,1.58C136.41,81.06,136.15,79.83,135.43,79.83Z"/><path d="M140.25,85.41c0-2,1.27-3.22,2.73-3.22s2.73,1.17,2.73,3.22S144.45,88.6,143,88.6,140.25,87.42,140.25,85.41Zm4.94,0c0-1.64-.95-2.78-2.21-2.78s-2.2,1.14-2.2,2.78.94,2.75,2.2,2.75S145.19,87,145.19,85.41Z"/><path d="M146.87,90a1.72,1.72,0,0,0,1-1.58l-.17-.73.45.58a.46.46,0,0,1-.43.2.47.47,0,0,1-.51-.5.49.49,0,0,1,.51-.51c.37,0,.62.33.62.87a2.33,2.33,0,0,1-1.26,2Z"/><path d="M152.41,83.16a.51.51,0,1,1,.51.54A.52.52,0,0,1,152.41,83.16Zm0,4.9a.51.51,0,1,1,1,0,.51.51,0,1,1-1,0Z"/><path d="M154.69,90.49a10.9,10.9,0,0,0,0-11.17l.3-.18a10.73,10.73,0,0,1,0,11.53Z"/><rect class="cls-2" x="22.13" y="42.7" width="239.21" height="198.06"/><rect class="cls-3" x="22.13" y="42.8" width="239.21" height="21.34"/><path class="cls-4" d="M37.88,52.48c0-.81,0-1.47-.06-2.07h1l.07,1.09h0a2.49,2.49,0,0,1,2.26-1.23c1.53,0,2.69,1.29,2.69,3.22,0,2.29-1.4,3.42-2.88,3.42a2.22,2.22,0,0,1-2-1h0v3.45H37.88ZM39,54.18a2.42,2.42,0,0,0,0,.47A1.78,1.78,0,0,0,40.8,56c1.22,0,1.93-1,1.93-2.46,0-1.26-.67-2.35-1.89-2.35a1.83,1.83,0,0,0-1.74,1.42,1.93,1.93,0,0,0-.08.47Z"/><path class="cls-4" d="M45.34,47.44h1.15v9.32H45.34Z"/><path class="cls-4" d="M54.18,53.53A3.11,3.11,0,0,1,51,56.91,3,3,0,0,1,48,53.64a3.1,3.1,0,0,1,3.15-3.37A3,3,0,0,1,54.18,53.53Zm-5,.07C49.15,55,50,56,51.08,56S53,55,53,53.57c0-1.08-.54-2.44-1.91-2.44S49.15,52.4,49.15,53.6Z"/><path class="cls-4" d="M57,48.59v1.82h1.66v.88H57v3.42c0,.79.23,1.24.87,1.24a2.15,2.15,0,0,0,.67-.09l0,.88a2.87,2.87,0,0,1-1,.16,1.61,1.61,0,0,1-1.24-.49,2.42,2.42,0,0,1-.45-1.66V51.29h-1v-.88h1V48.89Z"/><path class="cls-4" d="M60.55,53.8A2,2,0,0,0,62.72,56a4.18,4.18,0,0,0,1.76-.33l.2.82a5,5,0,0,1-2.11.41,3,3,0,0,1-3.13-3.2c0-1.93,1.14-3.43,3-3.43,2.07,0,2.61,1.82,2.61,3a2.56,2.56,0,0,1,0,.55ZM63.93,53a1.64,1.64,0,0,0-1.59-1.87A1.89,1.89,0,0,0,60.57,53Z"/><path class="cls-4" d="M72.22,53.53a3.11,3.11,0,0,1-3.15,3.38,3,3,0,0,1-3-3.27,3.1,3.1,0,0,1,3.15-3.37A3,3,0,0,1,72.22,53.53Zm-5,.07C67.19,55,68,56,69.12,56s1.93-1,1.93-2.47c0-1.08-.54-2.44-1.91-2.44S67.19,52.4,67.19,53.6Z"/><path class="cls-4" d="M73.52,55.59a3.22,3.22,0,0,0,1.53.45c.84,0,1.23-.42,1.23-.95s-.33-.84-1.18-1.16c-1.14-.41-1.69-1-1.68-1.8a2,2,0,0,1,2.19-1.86,3.06,3.06,0,0,1,1.56.39l-.29.84a2.52,2.52,0,0,0-1.3-.37c-.68,0-1,.39-1,.87s.37.76,1.2,1.08c1.1.41,1.66,1,1.67,1.91,0,1.12-.88,1.91-2.38,1.91a3.66,3.66,0,0,1-1.78-.44Z"/><path class="cls-4" d="M78.88,52.13c0-.66,0-1.19,0-1.72h1l.06,1.05h0A2.33,2.33,0,0,1,82,50.27c.87,0,2.24.52,2.24,2.7v3.79H83.13V53.1c0-1-.39-1.88-1.47-1.88a1.64,1.64,0,0,0-1.55,1.18,1.75,1.75,0,0,0-.08.54v3.82H78.88Z"/><path class="cls-4" d="M91.91,53.53a3.12,3.12,0,0,1-3.16,3.38,3,3,0,0,1-3-3.27,3.1,3.1,0,0,1,3.15-3.37A3,3,0,0,1,91.91,53.53Zm-5,.07c0,1.39.8,2.44,1.93,2.44s1.93-1,1.93-2.47c0-1.08-.54-2.44-1.91-2.44S86.87,52.4,86.87,53.6Z"/><path class="cls-4" d="M93.36,52.39c0-.75,0-1.39,0-2h1l0,1.25h0a1.92,1.92,0,0,1,1.76-1.39,1.51,1.51,0,0,1,.32,0v1.09a1.46,1.46,0,0,0-.39,0,1.61,1.61,0,0,0-1.54,1.48,3,3,0,0,0,0,.54v3.39H93.36Z"/><path class="cls-4" d="M99.35,48.59v1.82H101v.88H99.35v3.42c0,.79.23,1.24.88,1.24a2.2,2.2,0,0,0,.67-.09l0,.88a2.91,2.91,0,0,1-1,.16,1.65,1.65,0,0,1-1.25-.49,2.42,2.42,0,0,1-.45-1.66V51.29h-1v-.88h1V48.89Z"/><path class="cls-4" d="M108.22,57.6a4.76,4.76,0,0,1-2.33.53,3.91,3.91,0,0,1-4-4.1,4.81,4.81,0,0,1,4.8-5,3.64,3.64,0,0,1,3.81,3.79c0,2-1.1,3.12-2.33,3.12a1,1,0,0,1-1-1.15h0a2.06,2.06,0,0,1-1.86,1.15,1.48,1.48,0,0,1-1.41-1.65,3.1,3.1,0,0,1,3.1-3.11,3.42,3.42,0,0,1,1.41.28L108,53.79c-.2,1,0,1.46.39,1.47.68,0,1.42-.87,1.42-2.39a3,3,0,0,0-3.19-3.27A4,4,0,0,0,102.66,54,3.28,3.28,0,0,0,106,57.5a4.12,4.12,0,0,0,2-.47Zm-.71-5.66a1.84,1.84,0,0,0-.66-.11,2.27,2.27,0,0,0-2.09,2.37c0,.58.3,1,.87,1,.76,0,1.46-1,1.6-1.78Z"/><path class="cls-4" d="M117.46,50.41c0,.45,0,1,0,1.74v3.69a3.67,3.67,0,0,1-.91,2.9,3.41,3.41,0,0,1-2.31.76,4.11,4.11,0,0,1-2.12-.52l.29-.89a3.5,3.5,0,0,0,1.87.51c1.17,0,2-.62,2-2.22v-.71h0a2.23,2.23,0,0,1-2,1.07,2.85,2.85,0,0,1-2.71-3.11c0-2.15,1.4-3.36,2.87-3.36a2.13,2.13,0,0,1,2,1.09h0l0-1Zm-1.2,2.5a1.72,1.72,0,0,0-.07-.52,1.66,1.66,0,0,0-1.62-1.22c-1.1,0-1.89.93-1.89,2.4,0,1.24.64,2.29,1.88,2.29a1.69,1.69,0,0,0,1.61-1.19,2.11,2.11,0,0,0,.09-.62Z"/><path class="cls-4" d="M119.24,52.13c0-.66,0-1.19,0-1.72h1l.06,1h0a2.18,2.18,0,0,1,2-1.17,1.86,1.86,0,0,1,1.79,1.27h0a2.43,2.43,0,0,1,.72-.82,2.13,2.13,0,0,1,1.39-.45c.85,0,2.1.55,2.1,2.75v3.74h-1.13V53.17c0-1.23-.45-2-1.38-2a1.51,1.51,0,0,0-1.37,1,1.81,1.81,0,0,0-.09.58v3.93h-1.13V53c0-1-.45-1.74-1.32-1.74a1.6,1.6,0,0,0-1.44,1.16,1.73,1.73,0,0,0-.09.56v3.83h-1.12Z"/><path class="cls-4" d="M133.7,56.76l-.1-.8h0a2.37,2.37,0,0,1-1.94.95,1.82,1.82,0,0,1-1.94-1.83c0-1.53,1.37-2.38,3.82-2.36v-.14a1.31,1.31,0,0,0-1.45-1.46,3.12,3.12,0,0,0-1.65.47l-.26-.76a4,4,0,0,1,2.09-.56c1.94,0,2.41,1.33,2.41,2.6v2.37a10.11,10.11,0,0,0,.1,1.52Zm-.18-3.24c-1.25,0-2.68.2-2.68,1.43a1,1,0,0,0,1.08,1.1A1.59,1.59,0,0,0,133.46,55a1.29,1.29,0,0,0,.06-.37Z"/><path class="cls-4" d="M137.79,48.62a.72.72,0,1,1-1.43,0,.7.7,0,0,1,.72-.72A.69.69,0,0,1,137.79,48.62Zm-1.29,8.14V50.41h1.15v6.35Z"/><path class="cls-4" d="M139.57,47.44h1.15v9.32h-1.15Z"/><path class="cls-4" d="M142.27,56.08a.78.78,0,0,1,.78-.83.83.83,0,1,1-.78.83Z"/><path class="cls-4" d="M149.78,56.53a4.34,4.34,0,0,1-1.82.37,3,3,0,0,1-3.17-3.24,3.24,3.24,0,0,1,3.41-3.39,3.68,3.68,0,0,1,1.61.34l-.26.89a2.78,2.78,0,0,0-1.35-.31,2.2,2.2,0,0,0-2.24,2.4A2.18,2.18,0,0,0,148.17,56a3.25,3.25,0,0,0,1.42-.31Z"/><path class="cls-4" d="M156.8,53.53a3.11,3.11,0,0,1-3.16,3.38,3,3,0,0,1-3-3.27,3.1,3.1,0,0,1,3.15-3.37A3,3,0,0,1,156.8,53.53Zm-5,.07c0,1.39.79,2.44,1.92,2.44s1.93-1,1.93-2.47c0-1.08-.54-2.44-1.91-2.44S151.77,52.4,151.77,53.6Z"/><path class="cls-4" d="M158.26,52.13c0-.66,0-1.19-.06-1.72h1l.06,1h0a2.18,2.18,0,0,1,2-1.17,1.86,1.86,0,0,1,1.79,1.27h0a2.43,2.43,0,0,1,.72-.82,2.13,2.13,0,0,1,1.39-.45c.85,0,2.1.55,2.1,2.75v3.74H166.2V53.17c0-1.23-.45-2-1.38-2a1.51,1.51,0,0,0-1.37,1,2.13,2.13,0,0,0-.09.58v3.93h-1.13V53c0-1-.45-1.74-1.32-1.74a1.6,1.6,0,0,0-1.44,1.16,1.73,1.73,0,0,0-.09.56v3.83h-1.12Z"/><rect class="cls-2" x="232.04" y="49.35" width="8.11" height="8"/><line class="cls-2" x1="215.98" y1="53.41" x2="224.1" y2="53.41"/><line class="cls-2" x1="248.1" y1="49.35" x2="256.35" y2="57.6"/><line class="cls-2" x1="248.1" y1="57.46" x2="256.21" y2="49.35"/><path class="cls-5" d="M149.39,117.25l.66-4.17-6.44,8.35a40.71,40.71,0,0,0-40.45,29l11.42-4.05a31.83,31.83,0,0,1,32.66-15.69Z"/><path class="cls-6" d="M97.32,155.12l-4.17-.66,8.35,6.44a40.73,40.73,0,0,0,29,40.45l-4-11.42a31.84,31.84,0,0,1-15.69-32.67Z"/><path class="cls-7" d="M135.13,206.79l-.66,4.17,6.44-8.35a40.73,40.73,0,0,0,40.45-29l-11.42,4.05a31.83,31.83,0,0,1-32.66,15.69Z"/><path class="cls-8" d="M186.77,169.16l4.17.66-8.35-6.44a40.73,40.73,0,0,0-29-40.45c1.51,4.26,3.17,9,4,11.42A31.84,31.84,0,0,1,173.32,167Z"/><path class="cls-9" d="M152.86,179.19,146,178.1l-9.38-20.84a28,28,0,0,1-1.11-2.73l-.08,0c-.06,1.08-.26,2.71-.61,4.89l-2.63,16.5-6.38-1,4.78-30,7.28,1.16,9,20.18c.41.91.79,1.81,1.12,2.69l.08,0a34.17,34.17,0,0,1,.49-4.16l2.65-16.6,6.38,1Z"/><rect class="cls-10" x="87.93" y="108.21" width="107.61" height="107.61"/></svg>