<svg id="Capa_1" data-name="Capa 1" xmlns="http://www.w3.org/2000/svg" viewBox="0 0 283.46 283.46"><defs><style>.cls-1{fill:#fff;}.cls-2{fill:#e6e6e6;}.cls-3{fill:#ffec00;}.cls-4{fill:#009ee2;}.cls-5,.cls-7{fill:#1d1d1b;}.cls-6{fill:#e5007e;}.cls-7{stroke:#1d1d1b;stroke-width:0.79px;}.cls-10,.cls-11,.cls-12,.cls-13,.cls-14,.cls-15,.cls-16,.cls-17,.cls-7,.cls-8,.cls-9{stroke-miterlimit:10;}.cls-10,.cls-11,.cls-12,.cls-13,.cls-14,.cls-15,.cls-16,.cls-17,.cls-8,.cls-9{fill:none;stroke:#000;}.cls-9{stroke-dasharray:4.49 4.49;}.cls-10{stroke-dasharray:4.5 4.5;}.cls-11{stroke-dasharray:4.54 4.54;}.cls-12{stroke-dasharray:4.5 4.5;}.cls-13{stroke-dasharray:4.53 4.53;}.cls-14{stroke-dasharray:4.42 4.42;}.cls-15{stroke-dasharray:4.51 4.51;}.cls-16{stroke-dasharray:4.43 4.43;}.cls-17{stroke-width:5px;}</style></defs><title>stickers_ft3</title><rect class="cls-1" width="283.46" height="283.46"/><rect class="cls-2" x="29.9" y="24.3" width="223.67" height="238.08"/><rect class="cls-1" x="27.75" y="21.85" width="223.67" height="238.08"/><path class="cls-3" d="M103.59,74.28l.38-2.39-3.68,4.78A23.3,23.3,0,0,0,77.15,93.26l6.54-2.32a18.19,18.19,0,0,1,18.68-9Z"/><path class="cls-4" d="M73.81,95.94l-2.38-.38,4.77,3.68a23.28,23.28,0,0,0,16.6,23.13c-.87-2.43-1.82-5.12-2.32-6.53a18.19,18.19,0,0,1-9-18.68Z"/><path class="cls-5" d="M95.44,125.49l-.38,2.38,3.68-4.77a23.3,23.3,0,0,0,23.14-16.59l-6.53,2.31a18.21,18.21,0,0,1-18.68,9Z"/><path class="cls-6" d="M125,104l2.39.38-4.78-3.68A23.29,23.29,0,0,0,106,77.53l2.32,6.53a18.19,18.19,0,0,1,9,18.68Z"/><path class="cls-7" d="M105.58,109.7l-3.9-.62L96.31,97.16q-.47-1.05-.63-1.56h-.05a28,28,0,0,1-.35,2.79l-1.5,9.44-3.65-.58,2.73-17.18,4.17.67,5.15,11.54c.24.52.45,1,.64,1.54h.05a18.23,18.23,0,0,1,.28-2.38l1.51-9.5,3.66.58Z"/><path class="cls-8" d="M131.76,99.75l-2-1.52c0-.84-.12-1.67-.23-2.49"/><path class="cls-9" d="M128.64,91.34a30.7,30.7,0,0,0-15.17-18.66"/><path class="cls-8" d="M111.45,71.71c-.76-.33-1.53-.63-2.33-.9l.15-.92a5.16,5.16,0,0,0,0-1.57"/><path class="cls-10" d="M106.83,64.72a4.25,4.25,0,0,0-.56-.29,5.07,5.07,0,0,0-5.65,1.12"/><path class="cls-8" d="M99.22,67.31l-1.53,2c-.84,0-1.67.12-2.49.23"/><path class="cls-11" d="M90.76,70.45A30.64,30.64,0,0,0,72,85.87"/><path class="cls-8" d="M71.05,87.92c-.33.76-.62,1.54-.88,2.34l-.92-.15a5.16,5.16,0,0,0-1.57,0"/><path class="cls-12" d="M64.08,92.55a5.93,5.93,0,0,0-.29.56,5.09,5.09,0,0,0,1.12,5.65"/><path class="cls-8" d="M66.67,100.16l2,1.53c0,.84.12,1.67.23,2.49"/><path class="cls-13" d="M69.81,108.61a30.64,30.64,0,0,0,15.36,18.73"/><path class="cls-8" d="M87.21,128.3c.76.33,1.54.62,2.34.89l-.11.69a5.11,5.11,0,0,0,0,1.79"/><path class="cls-14" d="M92,135.13l.43.21a5.09,5.09,0,0,0,5.67-1.15"/><path class="cls-8" d="M99.49,132.46l1.53-2c.83,0,1.66-.12,2.49-.23"/><path class="cls-15" d="M107.92,129.33a30.67,30.67,0,0,0,18.7-15.28"/><path class="cls-8" d="M127.58,112q.49-1.14.9-2.34l.7.12a5.06,5.06,0,0,0,1.78,0"/><path class="cls-16" d="M134.42,107.24c.08-.14.15-.29.22-.44a5.07,5.07,0,0,0-1.14-5.67"/><path class="cls-3" d="M183.09,74.28l.38-2.39-3.68,4.78a23.29,23.29,0,0,0-23.13,16.59l6.53-2.32a18.19,18.19,0,0,1,18.68-9Z"/><path class="cls-4" d="M153.32,95.94l-2.39-.38,4.78,3.68a23.28,23.28,0,0,0,16.59,23.13L170,115.84a18.19,18.19,0,0,1-9-18.68Z"/><path class="cls-5" d="M174.94,125.49l-.38,2.38,3.69-4.77a23.29,23.29,0,0,0,23.13-16.59l-6.53,2.31a18.21,18.21,0,0,1-18.68,9Z"/><path class="cls-6" d="M204.47,104l2.39.38-4.78-3.68a23.29,23.29,0,0,0-16.59-23.13c.87,2.43,1.82,5.12,2.32,6.53a18.19,18.19,0,0,1,9,18.68Z"/><path class="cls-7" d="M185.08,109.7l-3.9-.62-5.36-11.92a15.9,15.9,0,0,1-.64-1.56h-.05c0,.62-.15,1.55-.34,2.79l-1.51,9.44-3.65-.58,2.73-17.18,4.17.67,5.15,11.54c.24.52.45,1,.64,1.54h.05a20.27,20.27,0,0,1,.28-2.38l1.51-9.5,3.66.58Z"/><path class="cls-8" d="M211.26,99.75l-2-1.52c0-.84-.12-1.67-.23-2.49"/><path class="cls-9" d="M208.14,91.34A30.7,30.7,0,0,0,193,72.68"/><path class="cls-8" d="M191,71.71c-.76-.33-1.53-.63-2.33-.9l.15-.92a5.16,5.16,0,0,0,0-1.57"/><path class="cls-10" d="M186.33,64.72a4.25,4.25,0,0,0-.56-.29,5.07,5.07,0,0,0-5.65,1.12"/><path class="cls-8" d="M178.72,67.31l-1.53,2c-.84,0-1.67.12-2.49.23"/><path class="cls-11" d="M170.26,70.45a30.65,30.65,0,0,0-18.75,15.42"/><path class="cls-8" d="M150.55,87.92c-.32.76-.62,1.54-.88,2.34l-.92-.15a5.16,5.16,0,0,0-1.57,0"/><path class="cls-12" d="M143.58,92.55a5.93,5.93,0,0,0-.29.56,5.09,5.09,0,0,0,1.12,5.65"/><path class="cls-8" d="M146.17,100.16l2,1.53c0,.84.12,1.67.23,2.49"/><path class="cls-13" d="M149.31,108.61a30.67,30.67,0,0,0,15.36,18.73"/><path class="cls-8" d="M166.71,128.3c.76.33,1.54.62,2.34.89l-.11.69a5.11,5.11,0,0,0,0,1.79"/><path class="cls-14" d="M171.51,135.13l.43.21a5.11,5.11,0,0,0,5.68-1.15"/><path class="cls-8" d="M179,132.46l1.53-2c.83,0,1.67-.12,2.49-.23"/><path class="cls-15" d="M187.42,129.33a30.67,30.67,0,0,0,18.7-15.28"/><path class="cls-8" d="M207.08,112q.49-1.14.9-2.34l.7.12a5.05,5.05,0,0,0,1.78,0"/><path class="cls-16" d="M213.93,107.24c.07-.14.15-.29.21-.44a5.07,5.07,0,0,0-1.14-5.67"/><path class="cls-3" d="M103.59,154.41,104,152l-3.68,4.78a23.3,23.3,0,0,0-23.14,16.59l6.54-2.32a18.21,18.21,0,0,1,18.68-9Z"/><path class="cls-4" d="M73.81,176.07l-2.38-.38,4.77,3.68a23.3,23.3,0,0,0,16.6,23.14L90.48,196a18.21,18.21,0,0,1-9-18.69Z"/><path class="cls-5" d="M95.44,205.62,95.06,208l3.68-4.78a23.3,23.3,0,0,0,23.14-16.59L115.35,189a18.21,18.21,0,0,1-18.68,9Z"/><path class="cls-6" d="M125,184.1l2.39.38-4.78-3.69A23.29,23.29,0,0,0,106,157.66l2.32,6.53a18.19,18.19,0,0,1,9,18.68Z"/><path class="cls-7" d="M105.58,189.83l-3.9-.62-5.37-11.92a16.81,16.81,0,0,1-.63-1.56h-.05c0,.62-.15,1.55-.35,2.8L93.78,188l-3.65-.59,2.73-17.17,4.17.66,5.15,11.54c.24.52.45,1,.64,1.54h.05a18.23,18.23,0,0,1,.28-2.38l1.51-9.5,3.66.59Z"/><path class="cls-8" d="M131.76,179.88l-2-1.52c0-.84-.12-1.67-.23-2.49"/><path class="cls-9" d="M128.64,171.48a30.69,30.69,0,0,0-15.17-18.67"/><path class="cls-8" d="M111.45,151.85c-.76-.34-1.53-.64-2.33-.91l.15-.92a5.16,5.16,0,0,0,0-1.57"/><path class="cls-10" d="M106.83,144.85a5.93,5.93,0,0,0-.56-.29,5.09,5.09,0,0,0-5.65,1.12"/><path class="cls-8" d="M99.22,147.44l-1.53,2c-.84,0-1.67.12-2.49.23"/><path class="cls-11" d="M90.76,150.58A30.68,30.68,0,0,0,72,166"/><path class="cls-8" d="M71.05,168.05c-.33.76-.62,1.54-.88,2.34l-.92-.15a5.16,5.16,0,0,0-1.57,0"/><path class="cls-12" d="M64.08,172.68a5.07,5.07,0,0,0,.83,6.21"/><path class="cls-8" d="M66.67,180.29l2,1.53c0,.84.12,1.67.23,2.49"/><path class="cls-13" d="M69.81,188.74a30.61,30.61,0,0,0,15.36,18.73"/><path class="cls-8" d="M87.21,208.43c.76.33,1.54.62,2.34.89l-.11.69a5.11,5.11,0,0,0,0,1.79"/><path class="cls-14" d="M92,215.26l.43.21a5.09,5.09,0,0,0,5.67-1.15"/><path class="cls-8" d="M99.49,212.59l1.53-2c.83,0,1.66-.12,2.49-.23"/><path class="cls-15" d="M107.92,209.46a30.68,30.68,0,0,0,18.7-15.27"/><path class="cls-8" d="M127.58,192.16c.33-.76.63-1.54.9-2.33l.7.11a5.06,5.06,0,0,0,1.78,0"/><path class="cls-16" d="M134.42,187.37a4.51,4.51,0,0,0,.22-.44,5.07,5.07,0,0,0-1.14-5.67"/><path class="cls-3" d="M183.09,154.41l.38-2.39-3.68,4.78a23.29,23.29,0,0,0-23.13,16.59l6.53-2.32a18.21,18.21,0,0,1,18.68-9Z"/><path class="cls-4" d="M153.32,176.07l-2.39-.38,4.78,3.68a23.3,23.3,0,0,0,16.59,23.14c-.86-2.44-1.82-5.13-2.32-6.53a18.21,18.21,0,0,1-9-18.69Z"/><path class="cls-5" d="M174.94,205.62l-.38,2.39,3.69-4.78a23.29,23.29,0,0,0,23.13-16.59L194.85,189a18.21,18.21,0,0,1-18.68,9Z"/><path class="cls-6" d="M204.47,184.1l2.39.38-4.78-3.69a23.29,23.29,0,0,0-16.59-23.13c.87,2.43,1.82,5.12,2.32,6.53a18.19,18.19,0,0,1,9,18.68Z"/><path class="cls-7" d="M185.08,189.83l-3.9-.62-5.36-11.92a14.94,14.94,0,0,1-.64-1.56h-.05c0,.62-.15,1.55-.34,2.8L173.28,188l-3.65-.59,2.73-17.17,4.17.66,5.15,11.54c.24.52.45,1,.64,1.54h.05a20.27,20.27,0,0,1,.28-2.38l1.51-9.5,3.66.59Z"/><path class="cls-8" d="M211.26,179.88l-2-1.52c0-.84-.12-1.67-.23-2.49"/><path class="cls-9" d="M208.14,171.48A30.69,30.69,0,0,0,193,152.81"/><path class="cls-8" d="M191,151.85c-.76-.34-1.53-.64-2.33-.91l.15-.92a5.16,5.16,0,0,0,0-1.57"/><path class="cls-10" d="M186.33,144.85a5.93,5.93,0,0,0-.56-.29,5.09,5.09,0,0,0-5.65,1.12"/><path class="cls-8" d="M178.72,147.44l-1.53,2c-.84,0-1.67.12-2.49.23"/><path class="cls-11" d="M170.26,150.58A30.69,30.69,0,0,0,151.51,166"/><path class="cls-8" d="M150.55,168.05c-.32.76-.62,1.54-.88,2.34l-.92-.15a5.16,5.16,0,0,0-1.57,0"/><path class="cls-12" d="M143.58,172.68a5.07,5.07,0,0,0,.83,6.21"/><path class="cls-8" d="M146.17,180.29l2,1.53c0,.84.12,1.67.23,2.49"/><path class="cls-13" d="M149.31,188.74a30.65,30.65,0,0,0,15.36,18.73"/><path class="cls-8" d="M166.71,208.43c.76.33,1.54.62,2.34.89l-.11.69a5.11,5.11,0,0,0,0,1.79"/><path class="cls-14" d="M171.51,215.26l.43.21a5.11,5.11,0,0,0,5.68-1.15"/><path class="cls-8" d="M179,212.59l1.53-2c.83,0,1.67-.12,2.49-.23"/><path class="cls-15" d="M187.42,209.46a30.68,30.68,0,0,0,18.7-15.27"/><path class="cls-8" d="M207.08,192.16c.33-.76.63-1.54.9-2.33l.7.11a5.05,5.05,0,0,0,1.78,0"/><path class="cls-16" d="M213.93,187.37a4.49,4.49,0,0,0,.21-.44,5.07,5.07,0,0,0-1.14-5.67"/><polyline class="cls-17" points="230.87 215.8 230.87 238.74 209.31 238.74"/><polyline class="cls-17" points="208.62 41.16 231.56 41.16 231.56 62.71"/><polyline class="cls-17" points="47.07 64.1 47.07 41.16 68.62 41.16"/><polyline class="cls-17" points="69.31 238.74 46.37 238.74 46.37 217.19"/></svg>