<svg id="Capa_1" data-name="Capa 1" xmlns="http://www.w3.org/2000/svg" viewBox="0 0 283.46 283.46"><defs><style>.cls-1{fill:#fff;}.cls-2{fill:#ffec00;}.cls-3{fill:#009ee2;}.cls-4,.cls-6{fill:#1d1d1b;}.cls-5{fill:#e5007e;}.cls-6{stroke:#1d1d1b;stroke-width:0.79px;}.cls-10,.cls-11,.cls-12,.cls-13,.cls-14,.cls-15,.cls-17,.cls-6,.cls-7,.cls-8,.cls-9{stroke-miterlimit:10;}.cls-10,.cls-11,.cls-12,.cls-13,.cls-14,.cls-15,.cls-17,.cls-7,.cls-8,.cls-9{fill:none;stroke:#000;}.cls-8{stroke-dasharray:4.78 4.78;}.cls-9{stroke-dasharray:4.85 4.85;}.cls-10{stroke-dasharray:4.83 4.83;}.cls-11{stroke-dasharray:4.85 4.85;}.cls-12{stroke-dasharray:4.82 4.82;}.cls-13{stroke-dasharray:4.78 4.78;}.cls-14{stroke-dasharray:4.8 4.8;}.cls-15{stroke-dasharray:4.78 4.78;}.cls-16{fill:lime;}.cls-17{stroke-dasharray:5;}.cls-18{fill:red;}</style></defs><title>stickers_ft2</title><rect class="cls-1" width="283.46" height="283.46"/><path class="cls-2" d="M79.39,164.31l.6-3.77-5.83,7.55a36.84,36.84,0,0,0-36.58,26.24l10.33-3.66a28.78,28.78,0,0,1,29.54-14.19Z"/><path class="cls-3" d="M32.3,198.57l-3.77-.6,7.55,5.82a36.83,36.83,0,0,0,26.24,36.58L58.65,230A28.77,28.77,0,0,1,44.46,200.5Z"/><path class="cls-4" d="M66.5,245.3l-.6,3.77,5.82-7.55a36.83,36.83,0,0,0,36.59-26.24L98,219a28.79,28.79,0,0,1-29.55,14.18Z"/><path class="cls-5" d="M113.19,211.26l3.78.6L109.42,206a36.84,36.84,0,0,0-26.24-36.59c1.36,3.85,2.87,8.1,3.66,10.33A28.79,28.79,0,0,1,101,209.32Z"/><path class="cls-6" d="M82.53,220.33l-6.17-1L67.88,200.5c-.5-1.1-.83-1.93-1-2.47H66.8c0,1-.24,2.45-.55,4.42l-2.38,14.92-5.77-.92,4.32-27.16L69,190.33l8.15,18.25c.37.82.71,1.64,1,2.43l.08,0a26.88,26.88,0,0,1,.44-3.76l2.39-15,5.78.92Z"/><path class="cls-7" d="M122.78,203.71l-2-1.52c0-.84-.11-1.67-.19-2.5"/><path class="cls-8" d="M119.89,195a48.51,48.51,0,0,0-27.22-34.32"/><path class="cls-7" d="M90.47,159.7q-1.16-.47-2.34-.87l.23-1.45a7.32,7.32,0,0,0,.1-1"/><path class="cls-9" d="M87.17,151.75a8,8,0,0,0-13.1-.54l-1,1.31"/><path class="cls-7" d="M71.58,154.44l-1.53,2c-.83.05-1.67.11-2.49.19"/><path class="cls-10" d="M62.78,157.35A48.49,48.49,0,0,0,28.31,185"/><path class="cls-7" d="M27.37,187.23c-.3.77-.58,1.56-.84,2.35l-1.45-.23a9,9,0,0,0-1-.1"/><path class="cls-11" d="M19.45,190.55a7.92,7.92,0,0,0-3,3.55,8,8,0,0,0,2.47,9.54l1.31,1"/><path class="cls-7" d="M22.15,206.13l2,1.53c0,.84.11,1.67.19,2.49"/><path class="cls-12" d="M25.05,214.92A48.5,48.5,0,0,0,52.6,249.36"/><path class="cls-7" d="M54.82,250.29c.78.31,1.56.59,2.36.86L57,252.24a9.29,9.29,0,0,0-.1,1.39"/><path class="cls-13" d="M58.36,258.11a7.94,7.94,0,0,0,3.39,2.76,8,8,0,0,0,9.54-2.47l1-1.34"/><path class="cls-7" d="M73.79,255.17l1.52-2c.84,0,1.67-.11,2.5-.19"/><path class="cls-14" d="M82.55,252.27a48.49,48.49,0,0,0,34.39-27.39"/><path class="cls-7" d="M117.88,222.67c.3-.78.59-1.56.86-2.35l1.11.18a9.12,9.12,0,0,0,1.37.1"/><path class="cls-15" d="M125.71,219.15a7.94,7.94,0,0,0,2.77-3.4,8,8,0,0,0-2.47-9.54l-1.33-1"/><path class="cls-16" d="M252.92,163.89l-57.38,57.39a8.66,8.66,0,0,1-12.23,0l-16-16a8.64,8.64,0,0,0-12.23,0h0a8.65,8.65,0,0,0,0,12.22l22.11,22.11,6.11,6.11a8.64,8.64,0,0,0,12.23,0l6.11-6.11,63.49-63.5a8.63,8.63,0,0,0,0-12.22h0A8.65,8.65,0,0,0,252.92,163.89Z"/><path class="cls-2" d="M79.39,34.87,80,31.1l-5.83,7.55A36.83,36.83,0,0,0,37.58,64.89l10.33-3.67A28.77,28.77,0,0,1,77.45,47Z"/><path class="cls-3" d="M32.3,69.12l-3.77-.6,7.55,5.83a36.83,36.83,0,0,0,26.24,36.58L58.65,100.6A28.77,28.77,0,0,1,44.46,71.06Z"/><path class="cls-4" d="M66.5,115.85l-.6,3.78,5.82-7.55a36.84,36.84,0,0,0,36.59-26.24L98,89.5a28.8,28.8,0,0,1-29.55,14.19Z"/><path class="cls-5" d="M113.19,81.82l3.78.6-7.55-5.83A36.84,36.84,0,0,0,83.18,40c1.36,3.85,2.87,8.1,3.66,10.33A28.78,28.78,0,0,1,101,79.88Z"/><path class="cls-6" d="M82.53,90.89l-6.17-1L67.88,71.06c-.5-1.1-.83-1.93-1-2.47l-.07,0c0,1-.24,2.45-.55,4.42L63.87,87.92,58.1,87l4.32-27.16,6.59,1,8.15,18.25c.37.82.71,1.63,1,2.43h.08a26.79,26.79,0,0,1,.44-3.75l2.39-15,5.78.92Z"/><circle class="cls-17" cx="72.47" cy="75.36" r="53.43"/><path class="cls-18" d="M217.07,55.23l-6.95,7-7-7A9.32,9.32,0,1,0,190,68.41l7,7-7,7A9.33,9.33,0,0,0,203.17,95.5l7-7,6.95,7a9.33,9.33,0,0,0,13.19-13.19l-7-7,7-7a9.32,9.32,0,1,0-13.19-13.18Z"/></svg>
