<svg id="Capa_1" data-name="Capa 1" xmlns="http://www.w3.org/2000/svg" viewBox="0 0 283.46 283.46"><defs><style>.cls-1{fill:#fff;}.cls-2{fill:#ffec00;}.cls-3{fill:#009ee2;}.cls-4,.cls-6{fill:#1d1d1b;}.cls-5{fill:#e5007e;}.cls-6{stroke:#1d1d1b;stroke-width:0.79px;}.cls-10,.cls-11,.cls-12,.cls-13,.cls-14,.cls-15,.cls-16,.cls-17,.cls-6,.cls-7,.cls-9{stroke-miterlimit:10;}.cls-10,.cls-11,.cls-12,.cls-13,.cls-14,.cls-15,.cls-16,.cls-17,.cls-7,.cls-9{fill:none;stroke:#000;}.cls-7{stroke-dasharray:4.94 4.94;}.cls-8{fill:red;}.cls-10{stroke-dasharray:4.78 4.78;}.cls-11{stroke-dasharray:4.85 4.85;}.cls-12{stroke-dasharray:4.83 4.83;}.cls-13{stroke-dasharray:4.85 4.85;}.cls-14{stroke-dasharray:4.82 4.82;}.cls-15{stroke-dasharray:4.78 4.78;}.cls-16{stroke-dasharray:4.8 4.8;}.cls-17{stroke-dasharray:4.78 4.78;}.cls-18{fill:lime;}</style></defs><title>stickers_ft2</title><rect class="cls-1" width="283.46" height="283.46"/><path class="cls-2" d="M93.08,167.47l.6-3.77-5.82,7.55a36.83,36.83,0,0,0-36.58,26.24l10.33-3.67a28.77,28.77,0,0,1,29.54-14.18Z"/><path class="cls-3" d="M46,201.72l-3.78-.6L49.77,207A36.84,36.84,0,0,0,76,243.53c-1.36-3.85-2.87-8.1-3.66-10.33a28.77,28.77,0,0,1-14.19-29.54Z"/><path class="cls-4" d="M80.2,248.45l-.61,3.78,5.83-7.55A36.84,36.84,0,0,0,122,218.44l-10.33,3.66a28.77,28.77,0,0,1-29.54,14.19Z"/><path class="cls-5" d="M126.89,214.42l3.77.6-7.55-5.83a36.83,36.83,0,0,0-26.24-36.58l3.67,10.33a28.78,28.78,0,0,1,14.19,29.54Z"/><path class="cls-6" d="M96.23,223.49l-6.18-1-8.47-18.85a24.58,24.58,0,0,1-1-2.47l-.08,0c0,1-.23,2.45-.54,4.42l-2.38,14.93-5.78-.92,4.33-27.16,6.59,1.05,8.15,18.25c.37.82.71,1.63,1,2.43h.07a30.41,30.41,0,0,1,.44-3.75l2.39-15,5.78.92Z"/><circle class="cls-7" cx="86.16" cy="207.96" r="53.43"/><path class="cls-8" d="M129.76,241.13l-3.28,3.27-3.28-3.27a4.39,4.39,0,0,0-6.21,6.21l3.28,3.28L117,253.89a4.39,4.39,0,0,0,6.21,6.22l3.28-3.28,3.28,3.28a4.39,4.39,0,1,0,6.21-6.22l-3.28-3.27,3.28-3.28a4.39,4.39,0,0,0-6.21-6.21Z"/><path d="M181.53,184a9.82,9.82,0,0,1,8.23-9.85,42.93,42.93,0,0,1,5.68-.15,9,9,0,0,1,6.39,2.21c1,.86,1.6.71,2.54,0a12.75,12.75,0,0,1,7.54-2.26c8.46,0,16.91,0,25.37,0,6.88,0,11.45,5.7,9.94,12.37a2.64,2.64,0,0,0,.26,2.06,8.69,8.69,0,0,1,1,6c-.17,1-.61,2,0,3a9.14,9.14,0,0,1,.85,7.07,2.91,2.91,0,0,0,.24,2.09A9.67,9.67,0,0,1,242,220.88a67.26,67.26,0,0,1-8.4.12c-1.14,0-1.35.28-1,1.42,1,3.59,1.57,7.22.7,11-1,4.23-4.16,7.74-7.78,8.37-6.42,1.12-11.37-2.86-11.64-9.41a4.15,4.15,0,0,0-1.21-2.92,29.24,29.24,0,0,0-2.39-2.2c-2.85-2.3-5.79-4.5-7.93-7.55-.27-.38-.58-.74-1.11-.39-2.9,1.94-6.18,1.8-9.44,1.73a10,10,0,0,1-10.2-10.41c0-4.34,0-8.68,0-13C181.52,193.06,181.5,188.53,181.53,184Zm62.87,18c-.12-2.12-1.6-3.54-4.85-4.51,2.39-1,4.11-2.49,3.62-5.22-.42-2.39-2.24-3.35-4.44-3.81.22-.51.72-.54,1.09-.74a4.47,4.47,0,0,0,2.39-4.24,4.59,4.59,0,0,0-3.26-3.79,9.9,9.9,0,0,0-2.55-.31c-7.87,0-15.74,0-23.61,0-5.78,0-8.88,3.12-8.88,8.89s.17,11.49,0,17.23a17.7,17.7,0,0,0,7.81,16.05,28.89,28.89,0,0,1,4.55,3.85c1.71,1.88,3,3.9,2.95,6.63s1.26,4.1,3.32,4.44c2.34.4,4.09-.67,5.07-3.08,1.45-3.56.74-11.11-3.94-15-.66-.55-1.27-1.16-1.9-1.75-.22-.21-.59-.42-.49-.75s.61-.3.94-.3h9.22c3,0,6.06,0,9.09,0,2.7,0,4.52-1.46,4.81-3.79s-1.09-4.27-3.79-4.94c-.26-.07-.52-.12-1.05-.24C243.07,205.56,244.5,203.8,244.4,202ZM200,184.22c0-2.9-1.36-4.48-4.23-4.78a24.6,24.6,0,0,0-4.46,0c-2.82.22-4.31,1.89-4.32,4.73,0,7,0,13.93,0,20.89,0,2,0,4.07,0,6.11a4.31,4.31,0,0,0,4.49,4.41c1.36,0,2.71,0,4.07,0a4.25,4.25,0,0,0,4.42-4.32c.05-4.61,0-9.23,0-13.84h0C200,193,200.05,188.61,200,184.22Z"/><path class="cls-2" d="M96.38,38.31l.6-3.78-5.82,7.55A36.84,36.84,0,0,0,54.57,68.32L64.9,64.66A28.79,28.79,0,0,1,94.44,50.47Z"/><path class="cls-3" d="M49.29,72.56,45.52,72l7.55,5.82a36.82,36.82,0,0,0,26.24,36.58L75.64,104A28.81,28.81,0,0,1,61.45,74.49Z"/><path class="cls-4" d="M83.49,119.29l-.6,3.77,5.82-7.55A36.83,36.83,0,0,0,125.3,89.27L115,92.94a28.78,28.78,0,0,1-29.54,14.18Z"/><path class="cls-5" d="M130.19,85.25l3.77.6L126.41,80a36.83,36.83,0,0,0-26.24-36.59c1.37,3.86,2.87,8.1,3.67,10.33A28.78,28.78,0,0,1,118,83.31Z"/><path class="cls-6" d="M99.53,94.32l-6.18-1L84.87,74.49a23.06,23.06,0,0,1-1-2.47h-.08a44.44,44.44,0,0,1-.55,4.42L80.87,91.35l-5.78-.92,4.32-27.16,6.59,1,8.15,18.25c.37.83.71,1.64,1,2.44h.08a28.57,28.57,0,0,1,.44-3.76l2.39-15,5.78.92Z"/><path class="cls-9" d="M139.77,77.7l-2-1.52c0-.84-.1-1.67-.19-2.5"/><path class="cls-10" d="M136.88,69a48.5,48.5,0,0,0-27.21-34.33"/><path class="cls-9" d="M107.47,33.69c-.77-.31-1.56-.6-2.35-.87l.23-1.45a7.32,7.32,0,0,0,.1-1"/><path class="cls-11" d="M104.16,25.74a8,8,0,0,0-13.09-.54l-1,1.31"/><path class="cls-9" d="M88.57,28.43l-1.53,2c-.83.05-1.66.11-2.49.2"/><path class="cls-12" d="M79.78,31.34A48.49,48.49,0,0,0,45.3,59"/><path class="cls-9" d="M44.37,61.22c-.3.77-.59,1.56-.85,2.35l-1.45-.23a9,9,0,0,0-1-.09"/><path class="cls-13" d="M36.44,64.54a8,8,0,0,0-.53,13.09l1.31,1"/><path class="cls-9" d="M39.14,80.13l2,1.52c.05.84.11,1.67.19,2.49"/><path class="cls-14" d="M42.05,88.91a48.46,48.46,0,0,0,27.54,34.44"/><path class="cls-9" d="M71.82,124.29c.77.3,1.55.58,2.35.85L74,126.23a8.12,8.12,0,0,0-.09,1.39"/><path class="cls-15" d="M75.35,132.1a8,8,0,0,0,12.93.29l1-1.34"/><path class="cls-9" d="M90.78,129.16l1.52-2c.84,0,1.67-.11,2.5-.19"/><path class="cls-16" d="M99.54,126.26a48.49,48.49,0,0,0,34.39-27.39"/><path class="cls-9" d="M134.87,96.66c.31-.77.59-1.56.86-2.35l1.11.18a9.12,9.12,0,0,0,1.37.1"/><path class="cls-17" d="M142.7,93.14a7.94,7.94,0,0,0,2.77-3.4A8,8,0,0,0,143,80.2l-1.34-1"/><path class="cls-18" d="M146.9,104.17l-21.32,21.32a3.21,3.21,0,0,1-4.55,0l-5.94-5.94a3.2,3.2,0,0,0-4.54,0h0a3.2,3.2,0,0,0,0,4.54l8.21,8.22,2.27,2.27a3.23,3.23,0,0,0,4.55,0l2.27-2.27,23.59-23.6a3.2,3.2,0,0,0,0-4.54h0A3.2,3.2,0,0,0,146.9,104.17Z"/><path d="M250.71,102.75a9.81,9.81,0,0,1-8.23,9.85,42.88,42.88,0,0,1-5.68.15,9,9,0,0,1-6.39-2.21c-1-.86-1.6-.71-2.54,0a12.73,12.73,0,0,1-7.54,2.26c-8.45,0-16.91,0-25.37,0-6.88,0-11.45-5.7-9.93-12.37a2.69,2.69,0,0,0-.27-2.06,8.8,8.8,0,0,1-1-6c.17-1,.61-2,0-3a9.14,9.14,0,0,1-.86-7.07,2.91,2.91,0,0,0-.24-2.09,9.68,9.68,0,0,1,7.65-14.24,67.23,67.23,0,0,1,8.4-.12c1.14,0,1.35-.28,1-1.42-1-3.59-1.58-7.22-.71-11,1-4.23,4.16-7.74,7.78-8.37,6.42-1.12,11.37,2.86,11.64,9.41a4.19,4.19,0,0,0,1.21,2.92c.77.76,1.56,1.52,2.4,2.2,2.84,2.3,5.78,4.5,7.92,7.55.28.38.58.74,1.11.39,2.9-1.94,6.19-1.8,9.44-1.73a10,10,0,0,1,10.2,10.41c0,4.34,0,8.68,0,13C250.72,93.7,250.75,98.23,250.71,102.75Zm-62.87-18c.12,2.12,1.6,3.54,4.85,4.51-2.39,1-4.11,2.49-3.62,5.22.43,2.39,2.24,3.35,4.44,3.81-.22.51-.72.54-1.08.74a4.44,4.44,0,0,0-2.39,4.24,4.57,4.57,0,0,0,3.25,3.79,10,10,0,0,0,2.55.31c7.87,0,15.74,0,23.61,0,5.78,0,8.88-3.12,8.89-8.89s-.17-11.49,0-17.23a17.69,17.69,0,0,0-7.82-16.05A29.34,29.34,0,0,1,216,61.39c-1.71-1.88-3-3.9-2.94-6.63s-1.26-4.1-3.33-4.44c-2.33-.4-4.09.67-5.07,3.07-1.45,3.57-.73,11.12,3.95,15,.66.55,1.27,1.16,1.89,1.75.23.21.59.42.49.75s-.6.3-.93.3h-9.23c-3,0-6.06,0-9.09,0-2.7,0-4.52,1.46-4.81,3.79s1.09,4.27,3.8,4.94c.26.07.52.12,1.05.24C189.17,81.2,187.74,83,187.84,84.8Zm44.37,17.74c0,2.9,1.37,4.48,4.23,4.78a24.72,24.72,0,0,0,4.47,0c2.82-.22,4.3-1.89,4.31-4.73,0-7,0-13.93,0-20.89,0-2,0-4.07,0-6.11a4.31,4.31,0,0,0-4.49-4.41c-1.35,0-2.71,0-4.07,0a4.25,4.25,0,0,0-4.42,4.32c0,4.61,0,9.23,0,13.84h0C232.21,93.77,232.2,98.15,232.21,102.54Z"/></svg>