<svg xmlns="http://www.w3.org/2000/svg" xmlns:xlink="http://www.w3.org/1999/xlink" viewBox="0 0 176.65 176.98"><defs><style>.cls-1,.cls-7{fill:#fff;}.cls-1,.cls-10,.cls-6,.cls-9{stroke:#1f140f;stroke-miterlimit:10;}.cls-1,.cls-10{stroke-width:0.51px;}.cls-2{fill:#ffef00;}.cls-3{fill:#009cde;}.cls-4,.cls-6{fill:#1f140f;}.cls-5{fill:#da0080;}.cls-6,.cls-9{stroke-width:0.96px;}.cls-8{fill:url(#Degradado_sin_nombre_3);}.cls-10{fill:none;}</style><linearGradient id="Degradado_sin_nombre_3" x1="31.65" y1="30.49" x2="77.05" y2="76.19" gradientUnits="userSpaceOnUse"><stop offset="0" stop-color="#fff"/><stop offset="0.27" stop-color="#979290" stop-opacity="0.54"/><stop offset="0.51" stop-color="#413833" stop-opacity="0.15"/><stop offset="0.61" stop-color="#1f140f" stop-opacity="0"/></linearGradient></defs><title>sticker_plot_despegado</title><g id="Capa_2" data-name="Capa 2"><g id="Capa_1-2" data-name="Capa 1"><path class="cls-1" d="M171.68,90.7h0l-.08-.06c-.21-.16-.42-.32-.64-.47L163.87,85a76.14,76.14,0,0,0-51.56-68.65,12.08,12.08,0,0,0,.47-2.35A12.45,12.45,0,0,0,90.55,5.09h0v0c-.18.22-.34.46-.5.7-.92,1.27-2.9,4-4.69,6.56A76.11,76.11,0,0,0,15.59,64.59a12.26,12.26,0,0,0-2.44-.33A12.45,12.45,0,0,0,4.64,86.19h0l.08.06.62.49,6.54,5.15a76.1,76.1,0,0,0,52.91,69,13,13,0,0,0-.46,3.26,12.45,12.45,0,0,0,22.16,7.9h0l.06-.08.47-.63,5.22-7a76.11,76.11,0,0,0,67.88-52A12.45,12.45,0,0,0,171.68,90.7Z"/><path class="cls-2" d="M99.68,19.16l1-6.45-10,12.91A63,63,0,0,0,28.19,70.49l17.66-6.27A49.22,49.22,0,0,1,96.37,40Z"/><path class="cls-3" d="M19.16,77.73l-6.45-1,12.91,10a63,63,0,0,0,44.87,62.56c-2.34-6.58-4.92-13.85-6.27-17.66A49.2,49.2,0,0,1,40,81Z"/><path class="cls-4" d="M77.64,157.64l-1,6.45,9.95-12.91a63,63,0,0,0,62.57-44.87l-17.67,6.27A49.2,49.2,0,0,1,81,136.84Z"/><path class="cls-5" d="M157.5,99.44l6.45,1L151,90.51a63,63,0,0,0-44.88-62.57l6.27,17.67A49.22,49.22,0,0,1,136.7,96.13Z"/><path class="cls-6" d="M105.06,115,94.5,113.27,80,81a44.4,44.4,0,0,1-1.72-4.23l-.13,0c-.08,1.67-.4,4.19-.93,7.56l-4.07,25.52-9.87-1.57,7.39-46.45,11.27,1.79L95.87,94.86c.64,1.41,1.22,2.79,1.73,4.16l.13,0a49.62,49.62,0,0,1,.76-6.42l4.08-25.69,9.89,1.57Z"/><path class="cls-7" d="M129.69,24.84a76,76,0,0,0-17.38-8.51,12.08,12.08,0,0,0,.47-2.35A12.45,12.45,0,0,0,90.55,5.09h0v0c-.18.22-.34.46-.5.7-.92,1.27-2.9,4-4.69,6.56A76.11,76.11,0,0,0,15.59,64.59a12.26,12.26,0,0,0-2.44-.33A12.45,12.45,0,0,0,4.64,86.19h0l.08.06.62.49,6.54,5.15a75.56,75.56,0,0,0,8.15,31"/><path class="cls-8" d="M129.69,25.14a75.58,75.58,0,0,0-17.38-8.51,12,12,0,0,0,.47-2.36A12.45,12.45,0,0,0,90.55,5.38h0v0c-.18.23-.34.47-.5.71-.92,1.27-2.9,4-4.69,6.55A76.13,76.13,0,0,0,15.59,64.88a13,13,0,0,0-2.44-.32A12.44,12.44,0,0,0,4.64,86.48h0l.08.07.62.49,6.54,5.15a75.61,75.61,0,0,0,8.15,31"/><path class="cls-7" d="M120.15,33.34c3.84-3.41,5.75-5.08,9.61-8.28a42.54,42.54,0,0,0-16.58-8.18,11.1,11.1,0,0,0,.41-2.23c.54-6.4-4.56-11.15-10.91-9.79a15.3,15.3,0,0,0-9.56,7.05h0v0c-.14.23-.27.45-.39.68-.7,1.24-2.21,3.9-3.61,6.31-27,10-39.08,25-58.17,49.19a4.86,4.86,0,0,0-1.36-.36c-4.09-.5-10.2,3.24-14.07,9.47-2.23,3.59-2.89,7.16-1.85,9.61h0l0,.07a4.66,4.66,0,0,0,.25.5,49.66,49.66,0,0,0,3.17,5.25c-3.38,10.7-2.54,21.31,3,30.44,3.92-3.67,6-5.51,10.14-9.21-3.28-8.1-3.09-17.08-.1-25.92a42.39,42.39,0,0,1-6.41-9.46S25.43,79,28,79.63c5.53,1.33,15.64,2.89,15.64,2.89-2.88,7.3-3.8,14.72-2.25,21.61,10.74-9.3,16.33-14,27.17-23.66,2-7.18,3-10.71,5-17.57,3.84.26,5.83.41,9.9.77.34,1,.51,1.53.87,2.57C95.63,56,101.07,50.72,111.8,40.88c-1.22-3.74-2.78-8.47-4.27-12.66A37.86,37.86,0,0,1,120.15,33.34ZM101.66,21.16c-1.06,7.23-3.34,19.09-3.34,19.09-18.68-1-33.89,11.09-45.79,26.81-3.32,1.43-9.6,4-15.25,6.18,15.27-24,31.86-40.64,56.53-44.95,3.51-5.1,5.22-7.67,8.64-12.88C102.45,15.41,102.16,17.82,101.66,21.16Z"/><path class="cls-2" d="M37.28,73.24c5.65-2.13,11.93-4.75,15.25-6.18,11.9-15.72,27.11-27.85,45.79-26.81,0,0,2.28-11.86,3.34-19.09.5-3.34.79-5.75.79-5.75-3.42,5.21-5.13,7.78-8.64,12.88C69.14,32.6,52.55,49.22,37.28,73.24Z"/><path class="cls-3" d="M43.63,82.52S33.52,81,28,79.63c-2.56-.61-4.28-1.13-4.28-1.13A42.39,42.39,0,0,0,30.12,88c-3,8.84-3.18,17.82.1,25.92,4.37-3.88,6.62-5.82,11.16-9.75C39.83,97.24,40.75,89.82,43.63,82.52Z"/><path class="cls-5" d="M107.53,28.22c1.49,4.19,3,8.92,4.27,12.66,3.35-3.07,5-4.58,8.35-7.54A37.86,37.86,0,0,0,107.53,28.22Z"/><path class="cls-9" d="M73.6,62.9c-2,6.86-3.08,10.39-5,17.57,6.4-5.66,9.57-8.53,15.82-14.23-.36-1-.53-1.55-.87-2.57C79.43,63.31,77.44,63.16,73.6,62.9Z"/><path class="cls-10" d="M129.76,25.06a42.54,42.54,0,0,0-16.58-8.18,11.1,11.1,0,0,0,.41-2.23c.54-6.4-4.56-11.15-10.91-9.79a15.3,15.3,0,0,0-9.56,7.05h0v0c-.14.23-.27.45-.39.68-.7,1.24-2.21,3.91-3.61,6.31-27,10-39.08,25-58.17,49.19a4.86,4.86,0,0,0-1.36-.36c-4.09-.5-10.2,3.24-14.07,9.47-2.23,3.59-2.89,7.16-1.85,9.61h0l0,.07a4.66,4.66,0,0,0,.25.5,49.66,49.66,0,0,0,3.17,5.25c-3.38,10.7-2.54,21.31,3,30.44"/><path class="cls-3" d="M33.44,81.14a82,82,0,0,1-9.71-2.59l6.38,9.39C20.17,114.33,43.59,141.07,71,149.22c-2.34-6.58-4.91-13.85-6.27-17.66-17.31-9.84-28.4-27.29-21.1-49C43.6,82.54,41.5,82.42,33.44,81.14Z"/><path class="cls-5" d="M158,99.44l6.45,1-12.91-9.95c1-28.6-14.76-54.55-44-62.42,2.69,11.66,3.59,13.71,4.94,17.52A49.22,49.22,0,0,1,136.7,96.13S149.92,98.16,158,99.44Z"/><path class="cls-6" d="M105.54,115,95,113.27,80.48,81a44.4,44.4,0,0,1-1.72-4.23l-.12,0c-.09,1.67-.41,4.19-.94,7.56l-4.06,25.52-9.88-1.57L69.7,60.38l14.08,3.08,12.57,31.4c.64,1.41,1.22,2.79,1.73,4.16l.13,0A49.62,49.62,0,0,1,99,92.62l4.09-25.69,9.88,1.57Z"/></g></g></svg>